<?xml version="1.0" encoding="utf-8"?>
<!-- Generator: Adobe Illustrator 19.0.0, SVG Export Plug-In . SVG Version: 6.00 Build 0)  -->
<svg version="1.1" id="Capa_1" xmlns="http://www.w3.org/2000/svg" xmlns:xlink="http://www.w3.org/1999/xlink" x="0px" y="0px"
	 viewBox="0 0 1080 1920" style="enable-background:new 0 0 1080 1920;" xml:space="preserve">
<g id="fondo_1_">
	<g id="fondo">
		<rect id="XMLID_1_" style="fill:#085CDF;" width="1080" height="1920"/>
	</g>
	<rect x="1.5" style="fill:none;" width="1077" height="2692.5"/>
	<rect x="1.5" style="fill:none;" width="1077" height="2692.5"/>
	<rect x="1.5" style="fill:none;" width="1077" height="2692.5"/>
	<rect x="1.5" style="fill:none;" width="1077" height="2692.5"/>
	<rect x="1.5" style="fill:none;" width="1077" height="2692.5"/>
	<rect x="1.5" style="fill:none;" width="1077" height="2692.5"/>
	<rect x="1.5" style="fill:none;" width="1077" height="2692.5"/>
	<rect x="1.5" style="fill:none;" width="1077" height="2692.5"/>
	<rect x="1.5" style="fill:none;" width="1077" height="2692.5"/>
	<rect x="1.5" style="fill:none;" width="1077" height="2692.5"/>
	<rect x="1.5" style="fill:none;" width="1077" height="2692.5"/>
	<rect x="1.5" style="fill:none;" width="1077" height="2692.5"/>
	<rect x="1.5" style="fill:none;" width="1077" height="2692.5"/>
	<rect x="1.5" style="fill:none;" width="1077" height="2692.5"/>
	<rect x="1.5" style="fill:none;" width="1077" height="2692.5"/>
	<rect x="1.5" style="fill:none;" width="1077" height="2692.5"/>
	<rect x="1.5" style="fill:none;" width="1077" height="2692.5"/>
	<rect x="1.5" style="fill:none;" width="1077" height="2692.5"/>
	<rect x="1.5" style="fill:none;" width="1077" height="2692.5"/>
	<rect x="1.5" style="fill:none;" width="1077" height="2692.5"/>
	<rect x="1.5" style="fill:none;" width="1077" height="2692.5"/>
	<rect x="1.5" style="fill:none;" width="1077" height="2692.5"/>
	<rect x="1.5" style="fill:none;" width="1077" height="2692.5"/>
	<rect x="1.5" style="fill:none;" width="1077" height="2692.5"/>
	<rect x="1.5" style="fill:none;" width="1077" height="2692.5"/>
	<rect x="1.5" style="fill:none;" width="1077" height="2692.5"/>
	<rect x="1.5" style="fill:none;" width="1077" height="2692.5"/>
	<rect x="1.5" style="fill:none;" width="1077" height="2692.5"/>
	<rect x="1.5" style="fill:none;" width="1077" height="2692.5"/>
	<rect x="1.5" style="fill:none;" width="1077" height="2692.5"/>
	<rect x="1.5" style="fill:none;" width="1077" height="2692.5"/>
	<rect x="1.5" style="fill:none;" width="1077" height="2692.5"/>
	<rect x="1.5" style="fill:none;" width="1077" height="2692.5"/>
	<rect x="1.5" style="fill:none;" width="1077" height="2692.5"/>
	<rect x="1.5" style="fill:none;" width="1077" height="2692.5"/>
</g>
<g id="cuadricola">
	<g>
		<rect style="fill:none;stroke:#050101;stroke-miterlimit:10;" width="1080" height="1920"/>
		<line style="fill:none;stroke:#050101;stroke-miterlimit:10;" x1="0" y1="1645.7" x2="1080" y2="1645.7"/>
		<line style="fill:none;stroke:#050101;stroke-miterlimit:10;" x1="0" y1="1371.4" x2="1080" y2="1371.4"/>
		<line style="fill:none;stroke:#050101;stroke-miterlimit:10;" x1="0" y1="1097.1" x2="1080" y2="1097.1"/>
		<line style="fill:none;stroke:#050101;stroke-miterlimit:10;" x1="0" y1="822.9" x2="1080" y2="822.9"/>
		<line style="fill:none;stroke:#050101;stroke-miterlimit:10;" x1="0" y1="548.6" x2="1080" y2="548.6"/>
		<line style="fill:none;stroke:#050101;stroke-miterlimit:10;" x1="0" y1="274.3" x2="1080" y2="274.3"/>
	</g>
</g>
<rect y="274.3" style="fill:#0B3763;" width="1080" height="274.3"/>
<rect y="822.9" style="fill:#0B3763;" width="1080" height="274.3"/>
<rect y="1371.4" style="fill:#0B3763;" width="1080" height="274.3"/>
<g id="Capa_4">
</g>
<g style="opacity:0.47;">
	<text transform="matrix(0.9276 0 0 1 41.6729 509.9141)" style="fill:#FFFFFF; font-family:'ArialMT'; font-size:254.2367px;">1</text>
</g>
<g style="opacity:0.47;">
	<text transform="matrix(0.9276 0 0 1 41.6729 761.9141)" style="fill:#FFFFFF; font-family:'ArialMT'; font-size:254.2367px;">2</text>
</g>
<g style="opacity:0.47;">
	<text transform="matrix(0.9276 0 0 1 41.6729 1055.9141)" style="fill:#FFFFFF; font-family:'ArialMT'; font-size:254.2367px;">3</text>
</g>
<g style="opacity:0.47;">
	<text transform="matrix(0.9276 0 0 1 41.6729 1307.9141)" style="fill:#FFFFFF; font-family:'ArialMT'; font-size:254.2367px;">4</text>
</g>
<g style="opacity:0.47;">
	<text transform="matrix(0.9276 0 0 1 41.6729 1591.9141)" style="fill:#FFFFFF; font-family:'ArialMT'; font-size:254.2367px;">5</text>
</g>
</svg>
