<?xml version="1.0" encoding="utf-8"?>
<!-- Generator: Adobe Illustrator 19.0.0, SVG Export Plug-In . SVG Version: 6.00 Build 0)  -->
<svg version="1.1" id="Capa_1" xmlns="http://www.w3.org/2000/svg" xmlns:xlink="http://www.w3.org/1999/xlink" x="0px" y="0px"
	 viewBox="0 -1920 1080 1920" style="enable-background:new 0 -1920 1080 1920;" xml:space="preserve">
<g id="fondo_1_">
	<g id="fondo">
		<rect id="XMLID_1_" y="-1920" style="fill:#085CDF;" width="1080" height="1920"/>
	</g>
	<rect x="1.5" y="-1920" style="fill:none;" width="1077" height="2692.5"/>
	<rect x="1.5" y="-1920" style="fill:none;" width="1077" height="2692.5"/>
	<rect x="1.5" y="-1920" style="fill:none;" width="1077" height="2692.5"/>
	<rect x="1.5" y="-1920" style="fill:none;" width="1077" height="2692.5"/>
	<rect x="1.5" y="-1920" style="fill:none;" width="1077" height="2692.5"/>
	<rect x="1.5" y="-1920" style="fill:none;" width="1077" height="2692.5"/>
	<rect x="1.5" y="-1920" style="fill:none;" width="1077" height="2692.5"/>
	<rect x="1.5" y="-1920" style="fill:none;" width="1077" height="2692.5"/>
	<rect x="1.5" y="-1920" style="fill:none;" width="1077" height="2692.5"/>
	<rect x="1.5" y="-1920" style="fill:none;" width="1077" height="2692.5"/>
	<rect x="1.5" y="-1920" style="fill:none;" width="1077" height="2692.5"/>
	<rect x="1.5" y="-1920" style="fill:none;" width="1077" height="2692.5"/>
	<rect x="1.5" y="-1920" style="fill:none;" width="1077" height="2692.5"/>
	<rect x="1.5" y="-1920" style="fill:none;" width="1077" height="2692.5"/>
	<rect x="1.5" y="-1920" style="fill:none;" width="1077" height="2692.5"/>
	<rect x="1.5" y="-1920" style="fill:none;" width="1077" height="2692.5"/>
	<rect x="1.5" y="-1920" style="fill:none;" width="1077" height="2692.5"/>
	<rect x="1.5" y="-1920" style="fill:none;" width="1077" height="2692.5"/>
	<rect x="1.5" y="-1920" style="fill:none;" width="1077" height="2692.5"/>
	<rect x="1.5" y="-1920" style="fill:none;" width="1077" height="2692.5"/>
	<rect x="1.5" y="-1920" style="fill:none;" width="1077" height="2692.5"/>
	<rect x="1.5" y="-1920" style="fill:none;" width="1077" height="2692.5"/>
	<rect x="1.5" y="-1920" style="fill:none;" width="1077" height="2692.5"/>
	<rect x="1.5" y="-1920" style="fill:none;" width="1077" height="2692.5"/>
	<rect x="1.5" y="-1920" style="fill:none;" width="1077" height="2692.5"/>
	<rect x="1.5" y="-1920" style="fill:none;" width="1077" height="2692.5"/>
	<rect x="1.5" y="-1920" style="fill:none;" width="1077" height="2692.5"/>
	<rect x="1.5" y="-1920" style="fill:none;" width="1077" height="2692.5"/>
	<rect x="1.5" y="-1920" style="fill:none;" width="1077" height="2692.5"/>
	<rect x="1.5" y="-1920" style="fill:none;" width="1077" height="2692.5"/>
	<rect x="1.5" y="-1920" style="fill:none;" width="1077" height="2692.5"/>
	<rect x="1.5" y="-1920" style="fill:none;" width="1077" height="2692.5"/>
	<rect x="1.5" y="-1920" style="fill:none;" width="1077" height="2692.5"/>
	<rect x="1.5" y="-1920" style="fill:none;" width="1077" height="2692.5"/>
	<rect x="1.5" y="-1920" style="fill:none;" width="1077" height="2692.5"/>
</g>
<g id="cuadricola">
	<g>
		<rect y="-1920" style="fill:none;stroke:#050101;stroke-miterlimit:10;" width="1080" height="1920"/>
		<line style="fill:none;stroke:#050101;stroke-miterlimit:10;" x1="0" y1="-274.3" x2="1080" y2="-274.3"/>
		<line style="fill:none;stroke:#050101;stroke-miterlimit:10;" x1="0" y1="-548.6" x2="1080" y2="-548.6"/>
		<line style="fill:none;stroke:#050101;stroke-miterlimit:10;" x1="0" y1="-822.9" x2="1080" y2="-822.9"/>
		<line style="fill:none;stroke:#050101;stroke-miterlimit:10;" x1="0" y1="-1097.1" x2="1080" y2="-1097.1"/>
		<line style="fill:none;stroke:#050101;stroke-miterlimit:10;" x1="0" y1="-1371.4" x2="1080" y2="-1371.4"/>
		<line style="fill:none;stroke:#050101;stroke-miterlimit:10;" x1="0" y1="-1645.7" x2="1080" y2="-1645.7"/>
	</g>
</g>
<rect y="-1645.7" style="fill:#0B3763;" width="1080" height="274.3"/>
<rect y="-1097.1" style="fill:#0B3763;" width="1080" height="274.3"/>
<rect y="-548.6" style="fill:#0B3763;" width="1080" height="274.3"/>
<g style="enable-background:new    ;">
	<path style="fill:#FFFFFF;" d="M129.5-1410.1h-20.7v-142.4c-5,5.1-11.5,10.3-19.6,15.4c-8.1,5.1-15.4,9-21.8,11.5v-21.6
		c11.6-5.9,21.7-13,30.4-21.4c8.7-8.4,14.8-16.5,18.4-24.3h13.4V-1410.1z"/>
</g>
</svg>
