<?xml version="1.0" encoding="utf-8"?>
<!-- Generator: Adobe Illustrator 19.0.0, SVG Export Plug-In . SVG Version: 6.00 Build 0)  -->
<svg version="1.1" id="Capa_1" xmlns="http://www.w3.org/2000/svg" xmlns:xlink="http://www.w3.org/1999/xlink" x="0px" y="0px"
	 viewBox="0 -819.7 1080 1920" style="enable-background:new 0 -819.7 1080 1920;" xml:space="preserve">
<rect x="-1.5" y="-819.7" style="fill:#085CDF;" width="1080" height="1920"/>
<g id="cuadricola">
	<g>
		<rect x="-1.5" y="-819.7" style="fill:none;stroke:#050101;stroke-miterlimit:10;" width="1080" height="1920"/>
		<line style="fill:none;stroke:#050101;stroke-miterlimit:10;" x1="-1.5" y1="826" x2="1078.5" y2="826"/>
		<line style="fill:none;stroke:#050101;stroke-miterlimit:10;" x1="-1.5" y1="551.7" x2="1078.5" y2="551.7"/>
		<line style="fill:none;stroke:#050101;stroke-miterlimit:10;" x1="-1.5" y1="277.4" x2="1078.5" y2="277.4"/>
		<line style="fill:none;stroke:#050101;stroke-miterlimit:10;" x1="-1.5" y1="3.2" x2="1078.5" y2="3.2"/>
		<line style="fill:none;stroke:#050101;stroke-miterlimit:10;" x1="-1.5" y1="-271.1" x2="1078.5" y2="-271.1"/>
		<line style="fill:none;stroke:#050101;stroke-miterlimit:10;" x1="-1.5" y1="-545.4" x2="1078.5" y2="-545.4"/>
	</g>
</g>
<g id="fondo2">
	<rect x="-1.5" y="-545.4" style="fill:#0B3763;" width="1080" height="274.3"/>
	<rect x="-1.5" y="3.2" style="fill:#0B3763;" width="1080" height="274.3"/>
	<rect x="-1.5" y="551.7" style="fill:#0B3763;" width="1080" height="274.3"/>
</g>
<g id="XMLID_2_" style="opacity:0.47;">
	<g id="XMLID_37_">
		<path id="XMLID_38_" style="fill:#FFFFFF;" d="M95.8-454.2h-0.5l-26.6,15.5l-4-17L98.2-475h17.7v165.3h-20L95.8-454.2L95.8-454.2z
			"/>
	</g>
</g>
<g id="XMLID_5_" style="opacity:0.47;">
	<g id="XMLID_42_">
		<path id="XMLID_43_" style="fill:#FFFFFF;" d="M50.8-57.8v-13.7l16.3-17c39.1-40.2,56.8-61.5,57.1-86.4c0-16.8-7.5-32.3-30.4-32.3
			c-13.9,0-25.5,7.6-32.5,14L54.7-209c10.6-9.7,25.7-16.8,43.4-16.8c33,0,46.9,24.4,46.9,48.1c0,30.5-20.5,55.2-52.8,88.7L79.9-76.8
			v0.5h68.9v18.6L50.8-57.8L50.8-57.8z"/>
	</g>
</g>
<g id="XMLID_8_" style="opacity:0.47;">
	<g id="XMLID_47_">
		<path id="XMLID_48_" style="fill:#FFFFFF;" d="M55.7,210.5c5.9,4.1,19.6,10.4,34,10.4c26.6,0,34.9-18.3,34.7-32
			c-0.2-23.1-19.6-33.1-39.6-33.1H73.2V139h11.6c15.1,0,34.2-8.4,34.2-28c0-13.2-7.8-24.9-26.9-24.9C79.8,86.1,68,91.9,61.4,97
			L56,80.7C64,74.3,79.6,68,96.1,68c30.2,0,43.9,19.3,43.9,39.4c0,17-9.4,31.5-28.3,38.9v0.5c18.9,4.1,34.2,19.3,34.2,42.5
			c0,26.4-19.1,49.6-55.9,49.6c-17.2,0-32.3-5.8-39.9-11.2L55.7,210.5z"/>
	</g>
</g>
<g id="XMLID_11_" style="opacity:0.47;">
	<g id="XMLID_60_">
		<path id="XMLID_61_" style="fill:#FFFFFF;" d="M114.9,488.2v-45H43.7v-14.7L112.1,323h22.4v102.7H156v17.5h-21.5v45H114.9z
			 M114.9,425.7v-55.2c0-8.6,0.2-17.3,0.7-25.9h-0.7c-4.7,9.7-8.5,16.8-12.7,24.4l-37.5,56.2v0.5H114.9z"/>
	</g>
</g>
<g id="XMLID_13_" style="opacity:0.47;">
	<g id="XMLID_54_">
		<path id="XMLID_56_" style="fill:#FFFFFF;" d="M142.3,625.8H83.8l-5.9,42.5c3.5-0.5,6.8-1,12.5-1c11.8,0,23.6,2.8,33,8.9
			c12,7.4,21.9,21.6,21.9,42.5c0,32.3-23.8,56.4-57.1,56.4c-16.7,0-30.9-5.1-38.2-10.2l5.2-17c6.4,4.1,18.9,9.2,32.8,9.2
			c19.6,0,36.3-13.7,36.3-35.8c-0.2-21.4-13.4-36.6-44.1-36.6c-8.7,0-15.6,1-21.2,1.8l9.9-79.3h73.3L142.3,625.8L142.3,625.8z"/>
	</g>
</g>
</svg>
