<?xml version="1.0" encoding="utf-8"?>
<!-- Generator: Adobe Illustrator 19.0.0, SVG Export Plug-In . SVG Version: 6.00 Build 0)  -->
<svg version="1.1" id="Capa_1" xmlns="http://www.w3.org/2000/svg" xmlns:xlink="http://www.w3.org/1999/xlink" x="0px" y="0px"
	 viewBox="0 0 1080 1920" style="enable-background:new 0 0 1080 1920;" xml:space="preserve">
<rect id="XMLID_35_" x="0" y="0" style="fill:#085CDF;" width="1080" height="1920"/>
<g id="cuadricola">
	<g id="XMLID_27_">
		<rect id="XMLID_34_" x="0" y="0" style="fill:none;stroke:#050101;stroke-miterlimit:10;" width="1080" height="1920"/>
		<line id="XMLID_33_" style="fill:none;stroke:#050101;stroke-miterlimit:10;" x1="0" y1="1645.7" x2="1080" y2="1645.7"/>
		<line id="XMLID_32_" style="fill:none;stroke:#050101;stroke-miterlimit:10;" x1="0" y1="1371.4" x2="1080" y2="1371.4"/>
		<line id="XMLID_31_" style="fill:none;stroke:#050101;stroke-miterlimit:10;" x1="0" y1="1097.1" x2="1080" y2="1097.1"/>
		<line id="XMLID_30_" style="fill:none;stroke:#050101;stroke-miterlimit:10;" x1="0" y1="822.9" x2="1080" y2="822.9"/>
		<line id="XMLID_29_" style="fill:none;stroke:#050101;stroke-miterlimit:10;" x1="0" y1="548.6" x2="1080" y2="548.6"/>
		<line id="XMLID_28_" style="fill:none;stroke:#050101;stroke-miterlimit:10;" x1="0" y1="274.3" x2="1080" y2="274.3"/>
	</g>
</g>
<g id="fondo2">
	<rect id="XMLID_26_" x="0" y="274.3" style="fill:#0B3763;" width="1080" height="274.3"/>
	<rect id="XMLID_25_" x="0" y="822.9" style="fill:#0B3763;" width="1080" height="274.3"/>
	<rect id="XMLID_24_" x="0" y="1371.4" style="fill:#0B3763;" width="1080" height="274.3"/>
</g>
<g id="XMLID_2_" style="opacity:0.47;">
	<g id="XMLID_37_">
		<path id="XMLID_38_" style="fill:#FFFFFF;" d="M97.3,365.5h-0.5L70.2,381l-4-17l33.5-19.3h17.7V510h-20L97.3,365.5L97.3,365.5z"/>
	</g>
</g>
<g id="XMLID_5_" style="opacity:0.47;">
	<g id="XMLID_42_">
		<path id="XMLID_43_" style="fill:#FFFFFF;" d="M52.3,761.9v-13.7l16.3-17c39.1-40.2,56.8-61.5,57.1-86.4
			c0-16.8-7.5-32.3-30.4-32.3c-13.9,0-25.5,7.6-32.5,14l-6.6-15.8c10.6-9.7,25.7-16.8,43.4-16.8c33,0,46.9,24.4,46.9,48.1
			c0,30.5-20.5,55.2-52.8,88.7l-12.3,12.2v0.5h68.9V762L52.3,761.9L52.3,761.9z"/>
	</g>
</g>
<g id="XMLID_8_" style="opacity:0.47;">
	<g id="XMLID_47_">
		<path id="XMLID_48_" style="fill:#FFFFFF;" d="M57.2,1030.2c5.9,4.1,19.6,10.4,34,10.4c26.6,0,34.9-18.3,34.7-32
			c-0.2-23.1-19.6-33.1-39.6-33.1H74.7v-16.8h11.6c15.1,0,34.2-8.4,34.2-28c0-13.2-7.8-24.9-26.9-24.9c-12.3,0-24.1,5.8-30.7,10.9
			l-5.4-16.3c8-6.4,23.6-12.7,40.1-12.7c30.2,0,43.9,19.3,43.9,39.4c0,17-9.4,31.5-28.3,38.9v0.5c18.9,4.1,34.2,19.3,34.2,42.5
			c0,26.4-19.1,49.6-55.9,49.6c-17.2,0-32.3-5.8-39.9-11.2L57.2,1030.2z"/>
	</g>
</g>
<g id="XMLID_11_" style="opacity:0.47;">
	<g id="XMLID_60_">
		<path id="XMLID_61_" style="fill:#FFFFFF;" d="M116.4,1307.9v-45H45.2v-14.7l68.4-105.5H136v102.7h21.5v17.5H136v45H116.4z
			 M116.4,1245.4v-55.2c0-8.6,0.2-17.3,0.7-25.9h-0.7c-4.7,9.7-8.5,16.8-12.7,24.4l-37.5,56.2v0.5H116.4z"/>
	</g>
</g>
<g id="XMLID_13_" style="opacity:0.47;">
	<g id="XMLID_54_">
		<path id="XMLID_56_" style="fill:#FFFFFF;" d="M143.8,1445.5H85.3l-5.9,42.5c3.5-0.5,6.8-1,12.5-1c11.8,0,23.6,2.8,33,8.9
			c12,7.4,21.9,21.6,21.9,42.5c0,32.3-23.8,56.4-57.1,56.4c-16.7,0-30.9-5.1-38.2-10.2l5.2-17c6.4,4.1,18.9,9.2,32.8,9.2
			c19.6,0,36.3-13.7,36.3-35.8c-0.2-21.4-13.4-36.6-44.1-36.6c-8.7,0-15.6,1-21.2,1.8l9.9-79.3h73.3L143.8,1445.5L143.8,1445.5z"/>
	</g>
</g>
</svg>
